<svg xmlns="http://www.w3.org/2000/svg" version="1.1" width="592" height="169">
		<marker id="Arrow" markerWidth="6" markerHeight="6" viewBox="-3 -3 6 6" refX="2" refY="0" markerUnits="strokeWidth" orient="auto">
		<polygon points="-1,0 -3,3 3,0 -3,-3" fill="gray"/>
		</marker>
		<circle cx="45.000000" cy="114.707195" r="30.000000" fill="orange"/><text fill="white" font-size="15.000000" text-anchor="middle" font-family="Verdana" x="45.000000" y="119.207195">Matrix</text><circle cx="212.469030" cy="124.221033" r="30.000000" fill="orange"/><text fill="white" font-size="15.000000" text-anchor="middle" font-family="Verdana" x="212.469030" y="128.721033">Matrix</text><circle cx="128.469070" cy="124.136650" r="30.000000" fill="orange"/><text fill="white" font-size="15.000000" text-anchor="middle" font-family="Verdana" x="128.469070" y="128.636650">Join</text><circle cx="156.636259" cy="45.000000" r="30.000000" fill="orange"/><text fill="white" font-size="15.000000" text-anchor="middle" font-family="Verdana" x="156.636259" y="49.500000">Bias</text><circle cx="240.636216" cy="45.084383" r="30.000000" fill="orange"/><text fill="white" font-size="15.000000" text-anchor="middle" font-family="Verdana" x="240.636216" y="49.584383">Tanh</text><circle cx="295.086977" cy="109.046206" r="30.000000" fill="orange"/><text fill="white" font-size="15.000000" text-anchor="middle" font-family="Verdana" x="295.086977" y="113.546206">Fork</text><circle cx="379.051081" cy="106.590650" r="30.000000" fill="orange"/><text fill="white" font-size="15.000000" text-anchor="middle" font-family="Verdana" x="379.051081" y="111.090650">Matrix</text><circle cx="463.031149" cy="104.760686" r="30.000000" fill="orange"/><text fill="white" font-size="15.000000" text-anchor="middle" font-family="Verdana" x="463.031149" y="109.260686">Bias</text><circle cx="547.022380" cy="103.546891" r="30.000000" fill="red"/><text fill="white" font-size="13.714286" text-anchor="middle" font-family="Verdana" x="547.022380" y="107.661177">Softmax</text><line x1="77.791420" y1="118.411624" x2="95.677650" y2="120.432221" stroke="gray" stroke-width="2" marker-end="url(#Arrow)"/><line x1="179.469046" y1="124.187883" x2="161.469053" y2="124.169801" stroke="gray" stroke-width="2" marker-end="url(#Arrow)"/><line x1="139.534751" y1="93.047252" x2="145.570577" y2="76.089398" stroke="gray" stroke-width="2" marker-end="url(#Arrow)"/><line x1="189.636242" y1="45.033150" x2="207.636233" y2="45.051232" stroke="gray" stroke-width="2" marker-end="url(#Arrow)"/><line x1="262.027586" y1="70.212242" x2="273.695607" y2="83.918347" stroke="gray" stroke-width="2" marker-end="url(#Arrow)"/><line x1="262.629927" y1="115.007745" x2="244.926079" y2="118.259494" stroke="gray" stroke-width="2" marker-end="url(#Arrow)"/><line x1="328.072874" y1="108.081523" x2="346.065185" y2="107.555333" stroke="gray" stroke-width="2" marker-end="url(#Arrow)"/><line x1="412.043250" y1="105.871736" x2="430.038981" y2="105.479601" stroke="gray" stroke-width="2" marker-end="url(#Arrow)"/><line x1="496.027703" y1="104.283838" x2="514.025826" y2="104.023739" stroke="gray" stroke-width="2" marker-end="url(#Arrow)"/><line x1="5.000000" y1="114.707195" x2="12.000000" y2="114.707195" stroke="gray" stroke-width="2" marker-end="url(#Arrow)"/><line x1="580.022380" y1="103.546891" x2="587.022380" y2="103.546891" stroke="gray" stroke-width="2" marker-end="url(#Arrow)"/></svg>