<svg xmlns="http://www.w3.org/2000/svg" version="1.1" width="592" height="169">
		<marker id="Arrow" markerWidth="6" markerHeight="6" viewBox="-3 -3 6 6" refX="2" refY="0" markerUnits="strokeWidth" orient="auto">
		<polygon points="-1,0 -3,3 3,0 -3,-3" fill="gray"/>
		</marker>
		<circle cx="45.000000" cy="54.527471" r="30.000000" fill="orange"/><text fill="white" font-size="15.000000" text-anchor="middle" font-family="Verdana" x="45.000000" y="59.027471">Matrix</text><circle cx="212.468298" cy="45.000000" r="30.000000" fill="orange"/><text fill="white" font-size="15.000000" text-anchor="middle" font-family="Verdana" x="212.468298" y="49.500000">Matrix</text><circle cx="128.468345" cy="45.091604" r="30.000000" fill="orange"/><text fill="white" font-size="15.000000" text-anchor="middle" font-family="Verdana" x="128.468345" y="49.591604">Join</text><circle cx="156.642377" cy="124.225818" r="30.000000" fill="orange"/><text fill="white" font-size="15.000000" text-anchor="middle" font-family="Verdana" x="156.642377" y="128.725818">Bias</text><circle cx="240.642327" cy="124.134215" r="30.000000" fill="orange"/><text fill="white" font-size="15.000000" text-anchor="middle" font-family="Verdana" x="240.642327" y="128.634215">Tanh</text><circle cx="295.087557" cy="60.167684" r="30.000000" fill="orange"/><text fill="white" font-size="15.000000" text-anchor="middle" font-family="Verdana" x="295.087557" y="64.667684">Fork</text><circle cx="379.051884" cy="62.615611" r="30.000000" fill="orange"/><text fill="white" font-size="15.000000" text-anchor="middle" font-family="Verdana" x="379.051884" y="67.115611">Matrix</text><circle cx="463.032118" cy="64.437906" r="30.000000" fill="orange"/><text fill="white" font-size="15.000000" text-anchor="middle" font-family="Verdana" x="463.032118" y="68.937906">Bias</text><circle cx="547.023460" cy="65.644052" r="30.000000" fill="orange"/><text fill="white" font-size="8.727273" text-anchor="middle" font-family="Verdana" x="547.023460" y="68.262234">SoftmaxLoss</text><line x1="77.791135" y1="50.820523" x2="95.677210" y2="48.798551" stroke="gray" stroke-width="2" marker-end="url(#Arrow)"/><line x1="179.468317" y1="45.035987" x2="161.468325" y2="45.055617" stroke="gray" stroke-width="2" marker-end="url(#Arrow)"/><line x1="139.536715" y1="76.180045" x2="145.574007" y2="93.137377" stroke="gray" stroke-width="2" marker-end="url(#Arrow)"/><line x1="189.642357" y1="124.189831" x2="207.642347" y2="124.170202" stroke="gray" stroke-width="2" marker-end="url(#Arrow)"/><line x1="262.031524" y1="99.004506" x2="273.698359" y2="85.297392" stroke="gray" stroke-width="2" marker-end="url(#Arrow)"/><line x1="262.629992" y1="54.208951" x2="244.925862" y2="50.958733" stroke="gray" stroke-width="2" marker-end="url(#Arrow)"/><line x1="328.073541" y1="61.129369" x2="346.065900" y2="61.653925" stroke="gray" stroke-width="2" marker-end="url(#Arrow)"/><line x1="412.044118" y1="63.331513" x2="430.039884" y2="63.722004" stroke="gray" stroke-width="2" marker-end="url(#Arrow)"/><line x1="496.028716" y1="64.911749" x2="514.026862" y2="65.170209" stroke="gray" stroke-width="2" marker-end="url(#Arrow)"/><line x1="5.000000" y1="54.527471" x2="12.000000" y2="54.527471" stroke="gray" stroke-width="2" marker-end="url(#Arrow)"/><line x1="580.023460" y1="65.644052" x2="587.023460" y2="65.644052" stroke="gray" stroke-width="2" marker-end="url(#Arrow)"/></svg>